<svg xmlns="http://www.w3.org/2000/svg" width="100%" height="100%" preserveAspectRatio="none" viewBox="0 0 300 300" fill="rgba(22, 199, 46, 1)" class=""><path d="M192,13.1c0-1.2-1.1-1.8-3.4-2.5c-0.5-0.6-3.5-1.4-3.8,0.5c-1.9,0.2-3.2,1.5-4.8,2.3c-0.4-1.3-2.6,0.1-3.3,0.6c-1.7,0.1-3.1,0.7-4.2,1.9c-1.9,0.3-3.2,1.5-4.1,3.5c-1.1-0.5-0.9,1.2-1.8,1c-1.9,0.2-3.2,1.6-4.5,2.9c-1.6,1-3.1,2.2-4.6,3.4c-1.4,0.5-2.1,2.4-4.1,3.5c-1,0.8-2.1,1.5-2.9,2.8c-1.9,0.8-3,2.8-4.7,3.9c-1.5,2.2-3.4,3.5-4.8,5.9c-3.4,3.7-6.4,7.2-8.5,11.6c-1.4,1.7-2.5,3.7-3.7,5.7c-0.2,1.6-1.4,1.5-1.4,3.2c0,0.2-0.1,0.3-0.1,0.5c-2.6,2.8-4.7,9.6-7.2,14.6c0,0.2-0.1,0.3-0.1,0.5c-1.9,4.7-5.2,12.4-6.5,17.4c-0.1,0.3-0.2,0.6-0.3,1c-3.3,8.9-5.3,17.9-6.2,29.4c-0.2,0.7-0.5,1.3,0.1,1.6c-5.2,37.5,0.1,70,14.6,97.5c-0.4,1.4,0.6,2.1,1.2,2.9c0.7,3.2,2.7,5.8,3.7,8.8c0.4,0,0.4,0.3,0.3,0.6c2.4,2.7,3.8,5.9,5.8,8.9c1.2,2.6,3.5,4.5,4.8,7c1,0.6,0.8,2,1.9,2.6c0.2,0,0.3,0.1,0.5,0.1c1.6,2.5,3.7,6,6.9,8.7c0,1.2,1,1.8,1.9,2.6c1.8,1.5,4.1,3.8,6,6.4c-5.4-1.1-8.3-1.9-13.7-2.8c-1.4-0.7-2.6-1.1-3.8-1.1c-0.6-0.2-1.3-0.4-1.9-0.5c-1.8-0.2-1.7,0.1-2.9-0.8c-0.6-0.2-1.3-0.4-1.9-0.5c-1.3-0.5-4.6-2.2-5.9-1.1c-3.5-1.1-8.4-1.1-11.9-1.8c-0.1,0.3-0.2,0.6-0.3,1c-0.8-0.3-1.3,0-1.7,0.5c-3.1,0.8-3.2,3.8-2.2,6.1c1.3-0.8,1.3,0.6,2.9,0.8c0.1-0.3,0.2-0.5,0.6-0.3c0.8,0.4,1-0.1,1.2-0.7c2-0.1,2.9,0.1,4.1,0.1c1.2-0.9,3.7,2.3,5.4,1c2.7,1.3,3.9,0.1,5.8,1.6c3.5,0.1,4.3,1.4,8.8,2c5.3,0.7,6.1,2.3,12.2,2.9c1.6,0.5,3.2,0.9,4.8,1.4c1.8,0.5,3.5,1,5.3,1.5c-0.2,1.1,2,0.8,2.7,1.3c0.3,0.4,1.1,1.1,1.4,0.4c0.5,0.1,0.2,0.7,0.2,1.1c0.3,0.1,0.6,0.2,1,0.3c2.1,0.1,3-0.4,4.9,0.9c-0.3,2,3.4,2.9,4.7,1.8c1.7,0.7,1.5-2.1,3.1-1.7c1.1,0,1.9-0.5,2.5-1.4c0.1-0.8,1.2-1,0.4-1.4c0.7-1.7,0.4-2.9-1.1-3.4c0.1-0.5,0.3-1,0.4-1.4c-0.5,0.1-0.9,0.3-1.6,0.1c-0.3-0.1-0.6-0.2-1-0.3c0.3-0.4,0.7-0.7,1.2-0.7c-0.1-0.7-0.8-1.2-1.6-1.5c0.3-0.4,0.7-0.7,1.2-0.7c-0.4-1-1.4-1.7-0.6-3.3c0.1-0.3,0.2-0.6,0.3-1c-1-0.5-1.4,0-2.1-0.1c-0.7-1.7-5.9-1.7-6.9-5.1c0-0.4-0.2-0.7-0.8-0.8c-0.2-1.4-1.1-2.3-2.2-3.2c-2.1-4.5-4.7-8.7-7.2-12.9c-0.1-0.8-0.4-1.4-1-1.8c-0.1-0.6-0.2-1.2-0.6-1.7c-0.5-2.4-1.7-4.5-2.8-6.5c-1.5-4.2-3-8.3-4.2-12.6c0.6-1.7-0.9-2.2-0.5-3.8c0.1-0.5,0.3-1,0.4-1.4c1-0.1,1.7-3.4,0.5-3.5c-0.2,0-0.3-0.1-0.5-0.1c0-0.2,0.1-0.3,0.1-0.5c0.2-0.4-0.1-0.5-0.3-0.6c-1-0.5,0.9-3-1-1.9c-0.2,0-0.3-0.1-0.5-0.1c-0.4-1.3-4-2.8-4.9-0.9c-1-1.1-2.7,1.5-3.8,2.5c-0.7,0.2-0.1,1.4-1.2,2.3c-1.1,2,0.4,2.5,0.5,3.8c-0.3,1.6,0.9,2.5,1.6,3.6c0,0.4,0.3,0.6,0.2,1.1c0.2,2.3,0.6,4.5,1.9,6.2c0,0.2-0.1,0.3-0.1,0.5c1.8,6.4,5.8,13.8,7.1,19.1c-5.6-7.4-10.9-14.9-14.7-23.3c-0.2,0-0.3-0.1-0.5-0.1c0-0.6-0.9-0.6-0.7-1.2c-1.7-4.5-4.3-8.4-5.7-13c-0.2-1-0.7-1.8-1.4-2.5c-1.2-4.5-3.2-8.5-4.7-12.7c-0.2-1.6-0.9-3-1.3-4.5c-1.5-6.3-3.9-12.1-3.9-19.3c-0.2,0-0.3-0.1-0.5-0.1c0.2-0.7,0.1-1.1-0.1-1.6c-0.1-1.2-0.5-2.2,0-3.6c-0.3-0.2-0.4-0.6-0.2-1.1c-0.8-4.7-1.2-9.6-1-14.8c0-0.2,0.1-0.3,0.1-0.5c-0.7-1.9,0-4.6-0.2-6.8c0-0.2,0.1-0.3,0.1-0.5c-0.7-5.5,0-11.2,0.5-16.5c0.1-0.3,0.2-0.6,0.3-1c0.2-5.5,0.9-11.3,2.3-17.5c0-0.2,0.1-0.3,0.1-0.5c1-2,0.2-3.1,0.9-4.9c0.3-1.1,0.6-2.2,1-3.4c1.7-5.4,2.8-9.5,5.2-14.6c0.1-0.3,0.2-0.6,0.3-1c2.3-7.5,5.5-13.3,8.2-20c0.8-0.4,1.1-2,1.4-3.2c1.7-1.3,2.3-4.7,3.8-6.2c0.1-0.3,0.2-0.6,0.3-1c0.4-0.3,0.7-0.6,0.9-1.3c1.5-0.7,2.2-2.8,3.3-4.3c1.5-2.1,3.1-4.1,4.4-6.5c1.9-1.6,3.7-3.5,5.3-5.8c0.4,0.2,0.5-0.1,0.6-0.3c0.7-0.1,1.2-0.8,1.5-1.6c1-0.1,1.6-0.9,2.1-2c1.9-0.5,3.2-1.9,4.2-4c0.5,0.1,1,0.3,1.4,0.4c1-0.4,1.3-1.9,2.3-2.5c1.1-2.2,3.2-2.4,4.7-3.9c1.4-0.6,3.1-0.7,4.2-1.9c1.4,0.3,2.3-0.3,2.6-1.9c1.4,0.8,0.9,0.7,2.1,0.1c1.7,0.8,3.6,0.1,2.9-1.2c0.8,0.2,1.8,0.7,2.1,0.1c2.9-0.8,5.1-0.8,6.9-2.2c0.5-0.1,1-0.2,1.2-0.7c0.6-0.3,2.5-1.7,1.6-2.1C194.1,16.2,193.2,13.9,192,13.1z M145.4,232L145.4,232L145.4,232C145.3,232,145.3,232,145.4,232C145.3,232,145.3,232,145.4,232C145.4,232,145.4,232,145.4,232C145.4,232,145.4,232,145.4,232z M144.5,231.5c-0.3-0.1-0.7-0.1-1-0.1C143.8,231.4,144.1,231.4,144.5,231.5z M147.9,230.6C147.9,230.6,147.9,230.6,147.9,230.6C147.9,230.6,147.9,230.6,147.9,230.6z M145.4,232c1.4,0,1,1,2.2,1.1C146.4,233,146.8,232,145.4,232C145.4,232,145.4,232,145.4,232C145.4,232,145.4,232,145.4,232L145.4,232L145.4,232z M146,232.8c0.2,0.3,0.3,0.7,0.3,1.1C146.3,233.4,146.2,233.1,146,232.8z M130.4,232c-0.1,0.1-0.1,0.1-0.2,0.2c0,0,0,0,0,0c0,0,0,0,0,0l0,0l0,0C130.3,232.2,130.3,232.1,130.4,232z M128.8,229.4c0,0.1-0.1,0.2,0,0.3C128.7,229.5,128.7,229.4,128.8,229.4z M130.1,232.3L130.1,232.3C130.1,232.3,130.1,232.3,130.1,232.3c-0.3-0.7-1-1.5-1.3-2.2C129.2,230.8,129.9,231.6,130.1,232.3L130.1,232.3L130.1,232.3z M128.7,229.7c0,0.1,0,0.2,0.1,0.3C128.8,229.9,128.8,229.8,128.7,229.7z M128.8,229.3c0.1-0.1,0.1-0.2,0.3-0.3C128.9,229,128.8,229.1,128.8,229.3z"></path></svg>
